# xmcd CD database file
#
# Track frame offsets:
#	150
#	18674
#	37559
#	52723
#	72837
#	92689
#	105202
#	127897
#	142232
#	156822
#	182437
#
# Disc length: 2651 seconds
#
# Revision: 0
# Processed by: cddbd v1.5PL3 Copyright (c) Steve Scherf et al.
# Submitted via: CDex 1.51
#
DISCID=7c0a590b
DTITLE=Tumbleweed - Another Kind of Happiness
DYEAR=1900
DGENRE=Country
TTITLE0=Fire me
TTITLE1=Blue Sky
TTITLE2=Enemy
TTITLE3=Waiting Song
TTITLE4=Song of freedom?
TTITLE5=Something for the pain
TTITLE6=Be like you
TTITLE7=Leaves me cold
TTITLE8=No truth
TTITLE9=Past glories
TTITLE10=Ifyouleavemecanicomewithyou?
EXTD=
EXTT0=
EXTT1=
EXTT2=
EXTT3=
EXTT4=
EXTT5=
EXTT6=
EXTT7=
EXTT8=
EXTT9=
EXTT10=
PLAYORDER=
